<?xml version="1.0" encoding="utf-8"?>
<!-- Generator: Adobe Illustrator 22.0.0, SVG Export Plug-In . SVG Version: 6.00 Build 0)  -->
<svg version="1.1" id="Camada_1" xmlns="http://www.w3.org/2000/svg" xmlns:xlink="http://www.w3.org/1999/xlink" x="0px" y="0px"
	 viewBox="0 0 129 129" style="enable-background:new 0 0 129 129;" xml:space="preserve">
<style type="text/css">
	.st0{fill:#FFFFFF;}
</style>
<g>
	<g>
		<path class="st0" d="M93.6,94.7c0.8,0.8,1.8,1.2,2.9,1.2s2.1-0.4,2.9-1.2l27-27c0.2-0.2,0.4-0.4,0.5-0.6c0,0,0.1-0.1,0.1-0.2
			c0.1-0.2,0.2-0.4,0.3-0.5c0-0.1,0-0.2,0.1-0.2c0.1-0.2,0.1-0.3,0.2-0.5c0.1-0.3,0.1-0.5,0.1-0.8s0-0.5-0.1-0.8
			c0-0.2-0.1-0.4-0.2-0.5c0-0.1,0-0.2-0.1-0.2c-0.1-0.2-0.2-0.4-0.3-0.6c0,0,0-0.1-0.1-0.1c-0.1-0.2-0.3-0.4-0.5-0.6l-27-27
			c-1.6-1.6-4.2-1.6-5.8,0c-1.6,1.6-1.6,4.2,0,5.8l20,20H42.5c-2.3,0-4.1,1.8-4.1,4.1s1.8,4.1,4.1,4.1h71.1l-20,20
			C92,90.5,92,93.1,93.6,94.7z"/>
		<path class="st0" d="M15.5,122.8h54c2.3,0,4.1-1.8,4.1-4.1V78.4c0-2.3-1.8-4.1-4.1-4.1s-4.1,1.8-4.1,4.1v36.2H19.6V14.9h45.8v36.2
			c0,2.3,1.8,4.1,4.1,4.1s4.1-1.8,4.1-4.1V10.8c0-2.3-1.8-4.1-4.1-4.1h-54c-2.3,0-4.1,1.8-4.1,4.1v107.9
			C11.5,121,13.3,122.8,15.5,122.8z"/>
	</g>
</g>
</svg>
